<svg width="28" height="28" viewBox="0 0 28 28" fill="none" xmlns="http://www.w3.org/2000/svg">
<path d="M6.68055 18.1094C8.77995 17.845 10.4858 19.779 9.9618 21.8291L8.38465 28H6.00184C2.32675 28 -0.485299 24.7256 0.0701988 21.0928L0.40516 18.8994L6.68055 18.1094ZM25.7411 21.209C25.1438 25.1149 21.7842 28 17.8329 28H11.8114L13.4159 22.0713C14.5631 17.8344 18.3396 14.8407 22.7264 14.6904L26.7587 14.5518L25.7411 21.209ZM13.8104 8.27246C12.9504 11.3724 10.3164 13.6562 7.12586 14.0684L1.02332 14.8564L2.2577 6.79102C2.85495 2.88507 6.21456 0 10.1659 0H16.1034L13.8104 8.27246ZM21.997 0C25.6721 0 28.4841 3.27436 27.9286 6.90723L27.3241 10.8574H20.5057C18.5421 10.8571 17.1085 9.00085 17.6034 7.10059L19.453 0H21.997Z" fill="#194BFB"/>
</svg>
