<svg width="32" height="32" viewBox="0 0 32 32" fill="none" xmlns="http://www.w3.org/2000/svg">
<path fill-rule="evenodd" clip-rule="evenodd" d="M3 8.47978L16.125 1L29.25 8.47978V16.8895L16.125 9.4097L5.40489 15.535V18.2642L16.125 12.1186L29.25 19.6388V23.5202L16.125 31L13.7128 29.6253L26.8043 22.1456V21.0135L16.125 14.881L3 22.3881V8.47978ZM5.40489 12.8059L16.125 6.66038L26.8043 12.7655V9.85445L16.125 3.70889L5.40489 9.85445V12.8059Z" fill="#0052D9"/>
<path d="M4.30435 24.2636L6.70924 25.6341L19.0598 18.5472L16.6549 17.1725L4.30435 24.2636Z" fill="#E34D59"/>
<path fill-rule="evenodd" clip-rule="evenodd" d="M23.788 21.4178L11.5598 28.3983L9.19566 27.0511L21.3832 20.0431L23.788 21.4178Z" fill="#E34D59"/>
</svg>
